<?xml version="1.0" standalone="no"?>
<!DOCTYPE svg PUBLIC "-//W3C//DTD SVG 20010904//EN"
 "http://www.w3.org/TR/2001/REC-SVG-20010904/DTD/svg10.dtd">
<svg version="1.0" xmlns="http://www.w3.org/2000/svg"
 width="1024.000000pt" height="1024.000000pt" viewBox="0 0 1024.000000 1024.000000"
 preserveAspectRatio="xMidYMid meet">
<metadata>
Created by potrace 1.16, written by Peter Selinger 2001-2019
</metadata>
<g transform="translate(0.000000,1024.000000) scale(0.100000,-0.100000)"
fill="#000000" stroke="none">
<path d="M3955 7292 c85 -45 177 -105 235 -151 25 -20 34 -21 2090 -21 l2066
0 44 -22 c26 -14 53 -37 65 -58 20 -35 20 -48 20 -1446 l0 -1411 -28 -36 c-56
-73 189 -67 -2625 -67 l-2539 0 -33 23 c-60 40 -75 78 -77 202 l-2 110 -73 7
c-40 4 -86 10 -101 13 l-28 5 3 -203 c3 -221 7 -237 69 -303 l30 -31 -48 -26
c-95 -51 -175 -115 -398 -317 -233 -210 -274 -255 -295 -327 -18 -60 8 -109
75 -143 l50 -25 3350 -3 c2967 -2 3355 0 3402 13 128 37 155 123 76 239 -26
37 -378 364 -494 457 -31 25 -90 66 -133 89 l-76 44 29 31 c17 16 39 50 50 75
20 45 21 58 21 1580 0 1027 -4 1547 -10 1572 -16 57 -69 119 -129 150 l-53 28
-2312 0 -2311 0 90 -48z"/>
<path d="M3182 6791 c-109 -41 -201 -131 -243 -241 -28 -71 -31 -192 -6 -271
35 -117 143 -224 266 -264 85 -28 220 -18 299 21 l62 30 372 -322 c205 -177
375 -320 378 -317 3 2 -3 10 -12 17 -10 7 -178 151 -373 321 l-356 307 44 47
c81 87 117 175 117 286 0 160 -93 306 -238 373 -78 36 -230 42 -310 13z m234
-132 c31 -15 48 -32 63 -63 24 -49 27 -134 7 -181 -12 -29 -11 -31 25 -58 40
-29 93 -123 105 -184 6 -29 3 -34 -37 -59 -136 -86 -302 -82 -436 9 -18 12
-33 29 -33 37 0 32 60 137 102 178 l44 43 -14 59 c-26 106 6 192 83 226 40 17
42 17 91 -7z"/>
<path d="M6255 6374 c-137 -85 -258 -159 -267 -164 -15 -9 -22 -1 -49 52 -64
126 -185 221 -304 237 -250 34 -457 -181 -472 -489 -7 -155 31 -288 115 -398
l25 -33 -122 -181 c-67 -99 -121 -184 -119 -189 2 -5 59 74 127 174 l125 184
50 -39 c69 -52 134 -73 227 -73 65 0 85 5 141 33 36 17 87 54 114 81 l49 49
155 -118 c85 -66 154 -125 153 -132 0 -7 -9 -56 -18 -108 -33 -183 -6 -385 74
-555 172 -365 547 -491 850 -286 270 184 392 605 279 970 l-20 64 201 201 201
201 30 -37 c90 -109 260 -118 372 -19 110 97 150 304 89 462 -64 166 -236 245
-379 173 -163 -81 -233 -342 -141 -525 l18 -36 -200 -199 -199 -200 -40 71
c-88 158 -216 271 -360 316 -77 24 -200 28 -280 9 -180 -43 -357 -207 -437
-402 -14 -35 -27 -65 -28 -67 -3 -2 -248 179 -304 226 -3 2 10 32 27 67 63
128 82 254 58 395 -13 76 -14 96 -4 103 7 5 131 81 276 169 144 88 262 162
262 165 0 15 -52 -14 -275 -152z m1774 -69 c50 -25 77 -132 51 -201 -9 -23 -7
-31 14 -53 29 -30 61 -100 71 -152 6 -33 4 -37 -32 -62 -80 -55 -149 -62 -230
-22 -79 40 -86 51 -68 111 8 27 29 69 47 93 31 43 32 48 33 144 0 99 0 99 33
128 37 33 43 34 81 14z m-2389 -74 c44 -30 70 -96 70 -176 -1 -38 -7 -87 -14
-107 -13 -35 -12 -37 15 -57 39 -29 74 -93 98 -180 l21 -75 -21 -22 c-11 -12
-48 -37 -82 -56 -56 -30 -70 -33 -142 -33 -72 0 -86 3 -142 33 -34 19 -71 45
-84 58 l-23 24 18 58 c25 78 50 126 92 172 33 37 35 41 25 77 -6 21 -11 72
-11 114 0 93 27 154 80 181 37 19 60 16 100 -11z m1225 -670 c52 -24 78 -53
112 -126 26 -56 28 -68 27 -185 0 -99 -4 -135 -20 -174 l-19 -49 58 -55 c66
-64 106 -137 141 -262 42 -149 44 -133 -24 -189 -98 -82 -224 -131 -335 -131
-116 0 -253 56 -347 142 l-58 53 35 106 c38 115 91 208 161 279 l43 45 -16 50
c-11 35 -16 90 -17 185 -1 126 1 139 25 190 29 62 70 106 114 126 41 18 73 17
120 -5z"/>
<path d="M3390 5584 c-162 -70 -214 -332 -96 -486 70 -91 188 -116 279 -58 52
33 101 102 118 164 17 64 8 193 -19 247 -59 121 -179 177 -282 133z m117 -138
c26 -23 28 -29 29 -104 0 -65 4 -84 21 -106 12 -15 29 -50 38 -77 20 -58 14
-69 -46 -100 -65 -33 -145 -22 -207 28 l-23 19 20 55 c12 31 32 66 45 78 21
20 22 26 13 65 -13 56 -2 112 28 142 30 30 47 30 82 0z"/>
<path d="M1932 4797 l-139 -139 -58 17 c-42 13 -83 16 -150 13 -159 -7 -158
-6 -610 -451 -215 -211 -403 -402 -418 -424 -48 -69 -69 -139 -70 -228 -3
-336 349 -574 655 -444 45 20 114 84 448 412 386 380 458 460 480 535 19 64
23 149 10 214 l-12 63 157 153 c86 85 155 155 153 156 -45 27 -180 137 -234
191 l-73 71 -139 -139z"/>
</g>
</svg>
